# File created by Blade
# Date/Time:  Wed Sep 24 20:15:16 2014
# Frame Rate: 120.000 fps
#------------------------------------------------------
:FULLY-SPECIFIED
:DEGREES
2203
root -6.282918 32.754940 -4.987642 16.733531 3.879809 -2.107304
Spine -19.279947 2.036465 0.901254
Head -4.783190 -13.038129 10.558853
LeftShoulder -5.269892 18.191403 11.221626
LeftArm 23.786581 33.484360 -72.516719
LeftForeArm -1.367978 -0.000000 21.359983
LeftHand -22.615356 -0.000000 -5.533362
LeftHandThumb1 -26.253704 0.000000 33.147579
RightShoulder -19.088969 14.879904 -15.521348
RightArm -27.666387 49.691677 58.473873
RightForeArm 37.561366 0.000000 85.702477
RightHand -6.080787 -0.000000 -37.363167
RightHandThumb1 -24.326973 -0.000000 -32.862282
LeftUpLeg -13.720776 6.581385 4.856113
LeftLeg 0.481203 -0.000000 -0.000000
LeftFoot -11.823136 6.655678 -18.682122
LeftToeBase 9.410112 -0.000000 -0.000000
RightUpLeg -14.133836 -6.438579 -0.216673
RightLeg 3.536539 -0.000000 -0.000000
RightFoot -9.009965 -3.708536 -12.905253
RightToeBase 0.001263 -0.000000 -0.000000
2204
root -6.280909 32.755765 -4.986445 16.725805 3.856531 -2.100812
Spine -19.277180 2.005058 0.877336
Head -4.812853 -13.452949 10.558670
LeftShoulder -5.275042 18.201078 11.175289
LeftArm 23.763486 33.449049 -72.484587
LeftForeArm -1.379766 -0.000000 21.368038
LeftHand -22.614007 -0.000000 -5.462743
LeftHandThumb1 -26.253704 0.000000 33.147579
RightShoulder -19.111392 14.933275 -15.637329
RightArm -27.694659 49.867421 58.310978
RightForeArm 38.866352 -0.000000 84.797738
RightHand -6.221333 -0.000000 -37.033756
RightHandThumb1 -24.326973 -0.000000 -32.862282
LeftUpLeg -13.703355 6.592929 4.843165
LeftLeg 0.476448 -0.000000 -0.000000
LeftFoot -11.820135 6.666181 -18.707795
LeftToeBase 9.410878 -0.000000 -0.000000
RightUpLeg -14.124948 -6.430217 -0.232183
RightLeg 3.533642 -0.000000 -0.000000
RightFoot -9.015522 -3.692759 -12.896144
RightToeBase 0.045639 -0.000000 -0.000000
2205
root -6.279286 32.755791 -4.985040 16.719904 3.834264 -2.094953
Spine -19.286693 1.970396 0.850853
Head -4.831508 -13.861962 10.563828
LeftShoulder -5.284066 18.225771 11.145765
LeftArm 23.749421 33.398611 -72.475085
LeftForeArm -1.352717 -0.000000 21.363132
LeftHand -22.596399 0.000000 -5.434060
LeftHandThumb1 -26.253704 0.000000 33.147579
RightShoulder -19.128848 14.918362 -15.742918
RightArm -27.634065 50.072845 58.255549
RightForeArm 40.246840 0.000000 83.880770
RightHand -5.465024 -0.000000 -36.756119
RightHandThumb1 -24.326973 -0.000000 -32.862282
LeftUpLeg -13.691642 6.618028 4.829980
LeftLeg 0.479015 -0.000000 -0.000000
LeftFoot -11.816612 6.648898 -18.716213
LeftToeBase 9.366454 -0.000000 -0.000000
RightUpLeg -14.115941 -6.427023 -0.243479
RightLeg 3.528265 -0.000000 -0.000000
RightFoot -9.013497 -3.683754 -12.916855
RightToeBase 0.078712 -0.000000 -0.000000
2206
root -6.276599 32.756188 -4.983261 16.714398 3.816827 -2.073016
Spine -19.292292 1.921359 0.809116
Head -4.867260 -14.338597 10.577898
LeftShoulder -5.301234 18.247377 11.111571
LeftArm 23.743764 33.358227 -72.456528
LeftForeArm -1.348715 -0.000000 21.349908
LeftHand -22.590447 -0.000000 -5.390461
LeftHandThumb1 -26.253704 0.000000 33.147579
RightShoulder -19.147943 14.927140 -15.871768
RightArm -27.664267 50.142381 58.196093
RightForeArm 41.746503 -0.000000 82.997697
RightHand -4.284431 -0.000000 -36.489865
RightHandThumb1 -24.326973 -0.000000 -32.862282
LeftUpLeg -13.676719 6.613821 4.803409
LeftLeg 0.473894 -0.000000 -0.000000
LeftFoot -11.804960 6.665115 -18.708490
LeftToeBase 9.323277 -0.000000 -0.000000
RightUpLeg -14.105156 -6.422031 -0.270289
RightLeg 3.522490 -0.000000 -0.000000
RightFoot -9.023069 -3.697718 -12.924456
RightToeBase 0.088962 -0.000000 -0.000000
2207
root -6.275562 32.756624 -4.981137 16.708372 3.790188 -2.067834
Spine -19.302102 1.892421 0.780193
Head -4.883161 -14.811472 10.574739
LeftShoulder -5.310472 18.261074 11.078779
LeftArm 23.729042 33.338189 -72.429747
LeftForeArm -1.354736 -0.000000 21.353323
LeftHand -22.618961 -0.000000 -5.315108
LeftHandThumb1 -26.253704 0.000000 33.147579
RightShoulder -19.161291 14.969591 -15.964141
RightArm -27.807703 50.224910 58.016746
RightForeArm 42.879415 -0.000000 82.298131
RightHand -5.145713 -0.000000 -36.009452
RightHandThumb1 -24.326973 -0.000000 -32.862282
LeftUpLeg -13.657560 6.602699 4.799841
LeftLeg 0.468820 -0.000000 -0.000000
LeftFoot -11.823568 6.693564 -18.723329
LeftToeBase 9.399686 -0.000000 -0.000000
RightUpLeg -14.096937 -6.413048 -0.282382
RightLeg 3.520767 -0.000000 -0.000000
RightFoot -9.013568 -3.692244 -12.941436
RightToeBase 0.070567 -0.000000 -0.000000
2208
root -6.274274 32.756760 -4.979867 16.703928 3.762178 -2.061399
Spine -19.309062 1.853781 0.754835
Head -4.898800 -15.265425 10.567899
LeftShoulder -5.328091 18.249379 11.051004
LeftArm 23.689590 33.310083 -72.439002
LeftForeArm -1.352779 -0.000000 21.336995
LeftHand -22.644465 -0.000000 -5.297486
LeftHandThumb1 -26.253704 0.000000 33.147579
RightShoulder -19.168517 15.001332 -16.034167
RightArm -27.926522 50.266786 57.894075
RightForeArm 44.033731 -0.000000 81.633933
RightHand -4.828232 0.000000 -35.124345
RightHandThumb1 -24.326973 -0.000000 -32.862282
LeftUpLeg -13.646296 6.643851 4.780025
LeftLeg 0.467424 -0.000000 -0.000000
LeftFoot -11.821840 6.680712 -18.722017
LeftToeBase 9.437484 -0.000000 -0.000000
RightUpLeg -14.088412 -6.380705 -0.300360
RightLeg 3.513148 -0.000000 -0.000000
RightFoot -9.002576 -3.698691 -12.912881
RightToeBase 0.034456 -0.000000 -0.000000
2209
root -6.273965 32.756918 -4.977721 16.689438 3.739714 -2.054188
Spine -19.308355 1.796054 0.728707
Head -4.904637 -15.773763 10.577350
LeftShoulder -5.361100 18.296364 11.012620
LeftArm 23.722064 33.268558 -72.404492
LeftForeArm -1.373492 -0.000000 21.312364
LeftHand -22.659399 -0.000000 -5.238167
LeftHandThumb1 -26.253704 0.000000 33.147579
RightShoulder -19.176150 15.015285 -16.074222
RightArm -27.966932 50.358409 57.819817
RightForeArm 44.782260 -0.000000 80.991065
RightHand -4.848542 0.000000 -34.332663
RightHandThumb1 -24.326973 -0.000000 -32.862282
LeftUpLeg -13.620872 6.632453 4.776156
LeftLeg 0.463667 -0.000000 -0.000000
LeftFoot -11.828875 6.704757 -18.751823
LeftToeBase 9.404778 -0.000000 -0.000000
RightUpLeg -14.072053 -6.392673 -0.307707
RightLeg 3.512757 -0.000000 -0.000000
RightFoot -9.014065 -3.677993 -12.937102
RightToeBase 0.069784 -0.000000 -0.000000
2210
root -6.274366 32.756758 -4.976085 16.684754 3.712646 -2.049520
Spine -19.319327 1.751916 0.703496
Head -4.919646 -16.294806 10.547643
LeftShoulder -5.402329 18.361012 10.969164
LeftArm 23.786527 33.233950 -72.347184
LeftForeArm -1.396632 -0.000000 21.289447
LeftHand -22.698313 0.000000 -5.196152
LeftHandThumb1 -26.253704 0.000000 33.147579
RightShoulder -19.206327 15.009661 -16.139161
RightArm -28.053057 50.461360 57.797761
RightForeArm 45.736911 -0.000000 80.412990
RightHand -4.002687 -0.000000 -33.261461
RightHandThumb1 -24.326973 -0.000000 -32.862282
LeftUpLeg -13.607405 6.663736 4.765686
LeftLeg 0.460646 -0.000000 -0.000000
LeftFoot -11.819233 6.693738 -18.721289
LeftToeBase 9.410691 -0.000000 -0.000000
RightUpLeg -14.062462 -6.375318 -0.317378
RightLeg 3.502126 -0.000000 -0.000000
RightFoot -9.017430 -3.677359 -12.957262
RightToeBase 0.074004 -0.000000 -0.000000
2211
root -6.274074 32.757048 -4.974030 16.673261 3.687292 -2.043774
Spine -19.316510 1.716100 0.666074
Head -4.937841 -16.922023 10.549639
LeftShoulder -5.387334 18.316533 10.957760
LeftArm 23.694722 33.197077 -72.390826
LeftForeArm -1.408141 -0.000000 21.280845
LeftHand -22.684878 -0.000000 -5.184069
LeftHandThumb1 -26.253704 0.000000 33.147579
RightShoulder -19.275657 15.004873 -16.174633
RightArm -28.103598 50.489505 57.828188
RightForeArm 46.297306 -0.000000 79.988056
RightHand -4.727852 -0.000000 -33.003560
RightHandThumb1 -24.326973 -0.000000 -32.862282
LeftUpLeg -13.586619 6.689716 4.753162
LeftLeg 0.459380 -0.000000 -0.000000
LeftFoot -11.814380 6.682210 -18.736987
LeftToeBase 9.363193 -0.000000 -0.000000
RightUpLeg -14.047584 -6.364913 -0.327787
RightLeg 3.497368 -0.000000 -0.000000
RightFoot -9.014937 -3.667319 -12.947518
RightToeBase 0.018362 -0.000000 -0.000000
2212
root -6.275499 32.757255 -4.972900 16.668457 3.677855 -2.038431
Spine -19.327282 1.655890 0.632349
Head -4.974112 -17.542812 10.543914
LeftShoulder -5.401842 18.337729 10.937653
LeftArm 23.690617 33.144368 -72.390248
LeftForeArm -1.399252 -0.000000 21.263549
LeftHand -22.669086 -0.000000 -5.220378
LeftHandThumb1 -26.253704 0.000000 33.147579
RightShoulder -19.348777 14.980089 -16.198327
RightArm -28.078067 50.584427 57.945872
RightForeArm 46.722257 -0.000000 79.512280
RightHand -4.843232 -0.000000 -32.329989
RightHandThumb1 -24.326973 -0.000000 -32.862282
LeftUpLeg -13.581017 6.675221 4.755593
LeftLeg 0.466480 -0.000000 -0.000000
LeftFoot -11.809861 6.698136 -18.729800
LeftToeBase 9.327536 -0.000000 -0.000000
RightUpLeg -14.036876 -6.374995 -0.331764
RightLeg 3.490008 -0.000000 -0.000000
RightFoot -9.010141 -3.647449 -12.959948
RightToeBase 0.018389 -0.000000 -0.000000
2213
root -6.276545 32.757040 -4.970506 16.653892 3.651901 -2.034437
Spine -19.322827 1.593982 0.600727
Head -5.002377 -18.232053 10.526852
LeftShoulder -5.442605 18.357244 10.903769
LeftArm 23.676071 33.082259 -72.399083
LeftForeArm -1.350896 -0.000000 21.255966
LeftHand -22.668494 -0.000000 -5.241347
LeftHandThumb1 -26.253704 0.000000 33.147579
RightShoulder -19.407697 15.004190 -16.267525
RightArm -28.102438 50.556329 58.101319
RightForeArm 47.177671 -0.000000 79.076245
RightHand -4.845813 -0.000000 -32.285857
RightHandThumb1 -24.326973 -0.000000 -32.862282
LeftUpLeg -13.554796 6.683888 4.752532
LeftLeg 0.463612 -0.000000 -0.000000
LeftFoot -11.821595 6.703629 -18.766110
LeftToeBase 9.322672 -0.000000 -0.000000
RightUpLeg -14.022506 -6.364943 -0.338170
RightLeg 3.493343 -0.000000 -0.000000
RightFoot -9.022881 -3.634716 -12.946043
RightToeBase 0.020215 -0.000000 -0.000000
2214
root -6.278550 32.757158 -4.968336 16.648565 3.625987 -2.034017
Spine -19.329178 1.524446 0.572987
Head -5.019825 -18.928257 10.506920
LeftShoulder -5.501970 18.355408 10.870757
LeftArm 23.651142 33.038848 -72.407444
LeftForeArm -1.339721 -0.000000 21.233789
LeftHand -22.620837 -0.000000 -5.304798
LeftHandThumb1 -26.253704 0.000000 33.147579
RightShoulder -19.489541 14.986149 -16.305107
RightArm -28.052133 50.484150 58.369777
RightForeArm 47.832151 -0.000000 78.764927
RightHand -4.680195 -0.000000 -32.229452
RightHandThumb1 -24.326973 -0.000000 -32.862282
LeftUpLeg -13.540835 6.707837 4.748397
LeftLeg 0.462656 -0.000000 -0.000000
LeftFoot -11.829694 6.719097 -18.734350
LeftToeBase 9.388450 -0.000000 -0.000000
RightUpLeg -14.012369 -6.345103 -0.341911
RightLeg 3.484611 -0.000000 -0.000000
RightFoot -9.019055 -3.626458 -12.944950
RightToeBase 0.033632 -0.000000 -0.000000
2215
root -6.281441 32.757140 -4.967138 16.645335 3.612068 -2.042215
Spine -19.338315 1.446555 0.562994
Head -5.046481 -19.623121 10.484245
LeftShoulder -5.552709 18.357770 10.829068
LeftArm 23.617015 32.998361 -72.411301
LeftForeArm -1.347198 -0.000000 21.245329
LeftHand -22.630191 -0.000000 -5.315429
LeftHandThumb1 -26.253704 0.000000 33.147579
RightShoulder -19.590214 14.972286 -16.328365
RightArm -28.014231 50.522667 58.644159
RightForeArm 47.928790 -0.000000 78.491670
RightHand -4.808898 -0.000000 -32.098855
RightHandThumb1 -24.326973 -0.000000 -32.862282
LeftUpLeg -13.533147 6.707605 4.763213
LeftLeg 0.462307 -0.000000 -0.000000
LeftFoot -11.835385 6.721449 -18.776950
LeftToeBase 9.387947 -0.000000 -0.000000
RightUpLeg -14.008093 -6.340950 -0.331070
RightLeg 3.479652 -0.000000 -0.000000
RightFoot -9.022310 -3.608335 -12.938488
RightToeBase 0.023239 -0.000000 -0.000000
